<?xml version="1.0" encoding="UTF-8"?>
<svg width="101px" height="72px" viewBox="0 0 101 72" version="1.1" xmlns="http://www.w3.org/2000/svg" xmlns:xlink="http://www.w3.org/1999/xlink">
    <!-- Generator: Sketch 43 (38999) - http://www.bohemiancoding.com/sketch -->
    <title>Group</title>
    <desc>Created with Sketch.</desc>
    <defs>
        <rect id="path-1" x="95" y="0" width="5" height="70"></rect>
    </defs>
    <g id="Page-1" stroke="none" stroke-width="1" fill="none" fill-rule="evenodd">
        <g id="Group" transform="translate(1.000000, 2.000000)">
            <path d="M1,42.5 L63,0.5 L95.5,5.5 L85.5,39.5 L9.5,58 C9.5,58 3.70759719,55.202089 2.5,53 C0.874263859,50.0354223 0.5,45.5 1,42.5 Z" id="Path-2" stroke="#fff" stroke-width="3"></path>
            <g id="Rectangle-2">
                <use fill="#fff" fill-rule="evenodd" xlink:href="#path-1"></use>
                <rect stroke="#fff" stroke-width="1" x="95.5" y="0.5" width="4" height="69"></rect>
            </g>
            <path d="M52,9 L64,0 C64,0 71.5,6.5 77,16 C82.5,25.5 86.5,39.5 86.5,39.5 L69.5,42.5 C69.5,42.5 65.4848705,29.713895 62.5,24 C59.5151295,18.286105 52,9 52,9 Z" id="Rectangle" fill="#fff"></path>
            <path d="M28,25 L39.713555,16 C39.713555,16 45.4757033,20.9938619 49.7012788,28.2925831 C53.9268542,35.5913043 57,46.3473146 57,46.3473146 L41,49.5 C41,49.5 38.7932355,40.889908 36.5,36.5 C34.2067645,32.110092 28,25 28,25 Z" id="Rectangle-Copy" fill="#fff"></path>
            <path d="M4,41.5 L15.75,33.5 C15.75,33.5 18.7744246,34.2012788 23,41.5 C27.2255754,48.7987212 26,54 26,54 L12,57.5 C12,57.5 11.7932355,51.889908 9.5,47.5 C7.20676446,43.110092 4,41.5 4,41.5 Z" id="Rectangle-Copy-2" fill="#fff"></path>
        </g>
    </g>
</svg>