<?xml version="1.0" encoding="UTF-8"?>
<svg width="98px" height="75px" viewBox="0 0 98 75" version="1.1" xmlns="http://www.w3.org/2000/svg" xmlns:xlink="http://www.w3.org/1999/xlink">
    <!-- Generator: Sketch 43 (38999) - http://www.bohemiancoding.com/sketch -->
    <title>Group 2</title>
    <desc>Created with Sketch.</desc>
    <defs>
        <polygon id="path-1" points="6 0 27 0 32 23 0 23"></polygon>
    </defs>
    <g id="Page-1" stroke="none" stroke-width="1" fill="none" fill-rule="evenodd">
        <g id="Group-2">
            <rect id="Rectangle-2" fill="#fff" x="13" y="3" width="13" height="9" rx="4"></rect>
            <rect id="Rectangle-3" fill="#fff" x="41" y="0" width="16" height="15"></rect>
            <rect id="Rectangle-5" fill="#fff" x="48" y="12" width="2" height="28"></rect>
            <circle id="Oval" stroke="#fff" stroke-width="2" cx="48.5" cy="45.5" r="5.5"></circle>
            <g id="Group" transform="translate(32.000000, 52.000000)">
                <g id="Rectangle-6">
                    <use fill="#fff" fill-rule="evenodd" xlink:href="#path-1"></use>
                    <path stroke="#fff" stroke-width="1" d="M6.38629845,0.5 L26.5970173,0.5 L31.379626,22.5 L0.647168014,22.5 L6.38629845,0.5 Z"></path>
                </g>
            </g>
            <rect id="Rectangle-4" fill="#fff" x="25" y="6" width="48" height="3"></rect>
            <rect id="Rectangle-2-Copy" fill="#fff" x="72" y="3" width="13" height="9" rx="4"></rect>
            <rect id="Rectangle" fill="#fff" x="0" y="0" width="40" height="3"></rect>
            <rect id="Rectangle-Copy" fill="#fff" x="58" y="0" width="40" height="3"></rect>
            <path d="M14,45 C14,45 16,8.5 49.25,8.5 C82.5,8.5 84.5,45 84.5,45" id="Path-2" stroke="#fff" stroke-width="3"></path>
        </g>
    </g>
</svg>